<svg aria-hidden="true" style="position: absolute; width: 0; height: 0; overflow: hidden;" version="1.1" xmlns="http://www.w3.org/2000/svg" xmlns:xlink="http://www.w3.org/1999/xlink">
    <defs>
        <symbol id="logo" viewBox="0 0 105 32">
            <path fill="#02914f" style="fill: var(--color1, #02914f)"
        d="M11.982 0.273c-0.427 0.145-1 0.373-1.273 0.509-2.291 1.155-4.045 3.364-4.773 5.991-0.236 0.836-0.255 1.036-0.245 2.5 0 1.491 0.018 1.655 0.282 2.645 0.973 3.573 3.545 8.082 7.264 12.727 1.227 1.527 1.436 1.564 2.427 0.373 3.618-4.355 6.636-9.6 7.555-13.136 0.918-3.545 0-7.045-2.473-9.445-1.127-1.091-2.118-1.691-3.582-2.173-0.791-0.255-0.864-0.264-2.6-0.255-1.727 0-1.818 0.009-2.582 0.264zM15.464 4.582c2.264 0.482 3.845 2.636 3.691 5.009-0.173 2.555-2.155 4.455-4.609 4.427-2.2-0.018-3.955-1.555-4.427-3.882-0.418-2.055 0.673-4.282 2.536-5.173 1.036-0.491 1.782-0.6 2.809-0.382z"
      ></path>
            <path fill="#02914f" style="fill: var(--color1, #02914f)"  d="M85.182 9.864v1.136h2.273v-2.273h-2.273v1.136z"></path>
            <path fill="#02914f" style="fill: var(--color1, #02914f)"
        d="M72.409 9.791c-0.309 0.082-0.655 0.373-0.809 0.7-0.127 0.273-0.145 1.009-0.145 6.955v6.645h2.364v-11.818h9.545v-2.545l-5.382 0.009c-2.964 0.009-5.473 0.036-5.573 0.055z"
      ></path>
            <path fill="#02914f" style="fill: var(--color1, #02914f)"
        d="M92.273 11.5v1.773h-3.091v2.545h3.091v8.273h2.364v-8.273h4.182v-2.545h-4.182v-3.545h-2.364v1.773z"
      ></path>
            <path 
        d="M41.591 10.6c-0.191 0.064-0.436 0.209-0.545 0.327s-1.4 2.164-2.864 4.545c-1.464 2.391-2.691 4.345-2.718 4.345s-1.2-1.873-2.6-4.155c-3.118-5.082-2.991-4.891-3.318-5.027-0.445-0.182-1.064-0.064-1.4 0.264l-0.282 0.282-0.027 5.909-0.018 5.909h2.364l0.018-3.655 0.027-3.645 2.182 3.573c1.573 2.573 2.255 3.618 2.455 3.745 0.491 0.3 1.273 0.145 1.6-0.318 0.073-0.109 1.055-1.709 2.182-3.564l2.036-3.355 0.027 3.609 0.018 3.609h2.455v-5.727c0-6.191 0-6.182-0.482-6.5-0.391-0.255-0.727-0.309-1.109-0.173z"
      ></path>
            <path fill="#02914f" style="fill: var(--color1, #02914f)" d="M85.182 18.682v5.409h2.273v-10.818h-2.273v5.409z"></path>
            <path 
        d="M47.364 14.773v1.045h2.618c1.455 0 2.755 0.045 2.936 0.091 0.636 0.182 0.673 0.273 0.7 2.173 0.036 1.927 0 2.218-0.3 2.518l-0.218 0.218h-5.3l-0.264-0.264c-0.145-0.145-0.264-0.364-0.264-0.491 0-0.355 0.191-0.791 0.4-0.909 0.127-0.073 0.927-0.127 2.555-0.155l2.364-0.045v-2.091h-5.182l-0.609 0.3c-0.836 0.409-1.382 1.027-1.627 1.855-0.564 1.855 0.464 3.509 2.418 3.891 0.364 0.073 1.445 0.091 3.273 0.073l2.727-0.027 0.518-0.255c0.745-0.364 1.382-1.091 1.618-1.855 0.155-0.518 0.182-0.836 0.182-2.564-0.009-1.645-0.036-2.036-0.164-2.436-0.336-0.955-1.118-1.664-2.191-1.973-0.409-0.118-1.018-0.145-3.345-0.145h-2.845v1.045z"
      ></path>
            <path 
        d="M60.082 13.936c-0.745 0.255-1.273 0.609-1.636 1.1-0.527 0.727-0.536 0.809-0.536 6.073v4.8h2.364v-4.645c0-4.755 0.009-4.882 0.355-5.145 0.109-0.082 0.855-0.109 2.791-0.118h2.645l0.218 0.236c0.218 0.227 0.218 0.245 0.218 2.127s0 1.9-0.218 2.127l-0.218 0.236h-4.791v2.282l2.573-0.027c2.418-0.027 2.591-0.045 3.082-0.236 0.691-0.282 1.445-0.973 1.718-1.582 0.2-0.455 0.218-0.609 0.245-2.545 0.027-1.718 0.009-2.155-0.118-2.582-0.282-0.973-0.755-1.527-1.682-1.982l-0.591-0.282-2.909-0.027c-2.827-0.018-2.927-0.009-3.509 0.191z"
      ></path>
            <path fill="#02914f" style="fill: var(--color1, #02914f)" d="M74.818 16.909v1.273h7.455v-2.545h-7.455v1.273z"></path>
        </symbol>
    </defs>
</svg>